<?xml version="1.0" standalone="no"?>
<!DOCTYPE svg PUBLIC "-//W3C//DTD SVG 20010904//EN"
 "http://www.w3.org/TR/2001/REC-SVG-20010904/DTD/svg10.dtd">
<svg version="1.0" xmlns="http://www.w3.org/2000/svg"
 width="189.000000pt" height="38.000000pt" viewBox="0 0 189.000000 38.000000"
 preserveAspectRatio="xMidYMid meet">

<g transform="translate(0.000000,38.000000) scale(0.100000,-0.100000)"
fill="#000000" stroke="none">
<path d="M83 332 l-83 -47 0 -96 0 -95 85 -48 85 -48 85 48 85 48 0 95 0 96
-81 45 c-45 25 -84 46 -87 47 -4 1 -44 -19 -89 -45z m127 13 c17 -9 30 -18 30
-20 0 -3 -29 -5 -65 -5 -67 0 -81 9 -42 28 31 15 43 14 77 -3z m-18 -51 c7 -4
8 -3 4 4 -5 8 3 12 23 12 20 0 34 -7 41 -19 16 -30 12 -33 -20 -16 -27 14 -29
14 -23 0 3 -9 8 -14 11 -11 12 13 42 -17 42 -42 l0 -27 -19 28 c-10 16 -21 25
-24 20 -3 -5 3 -17 14 -27 12 -10 18 -24 15 -32 -3 -9 -1 -12 4 -9 6 3 10 -5
10 -19 0 -20 -9 -30 -40 -46 -22 -11 -40 -23 -40 -25 0 -3 18 4 40 15 42 22
46 20 30 -11 -14 -26 -65 -25 -109 2 -18 11 -35 18 -38 15 -3 -2 8 -11 24 -20
l28 -15 -36 -1 c-29 0 -38 5 -48 26 -10 24 -10 26 6 20 17 -6 17 -5 0 8 -14
11 -17 27 -16 85 1 39 6 74 10 77 5 3 9 10 9 17 0 6 -8 0 -17 -13 -13 -18 -17
-42 -15 -90 2 -65 2 -65 -14 -36 -13 23 -14 34 -5 48 18 29 12 35 -9 8 l-20
-25 0 41 c0 36 4 42 36 60 29 17 44 19 85 13 27 -4 54 -11 61 -15z m109 -1
c24 -15 29 -24 29 -57 0 -45 -5 -42 -45 27 -29 52 -27 55 16 30z m9 -100 c0
-8 -7 -28 -15 -46 -15 -31 -5 -21 22 20 10 15 12 12 12 -24 1 -37 -3 -44 -29
-58 -38 -20 -43 -19 -30 5 6 10 10 23 9 27 -1 4 -1 35 0 68 2 55 3 58 16 41 8
-11 15 -26 15 -33z m-245 -86 l28 -49 -41 21 c-40 21 -42 23 -42 68 0 53 1 53
55 -40z m175 -52 c0 -2 -17 -13 -37 -23 -36 -19 -37 -19 -70 0 -18 11 -33 22
-33 24 0 2 32 4 70 4 39 0 70 -2 70 -5z"/>
<path d="M118 284 c-38 -20 -36 -28 2 -9 17 9 30 18 30 20 0 7 -1 6 -32 -11z"/>
<path d="M155 260 c-3 -6 1 -7 9 -4 18 7 21 14 7 14 -6 0 -13 -4 -16 -10z"/>
<path d="M96 232 c-2 -4 -1 -14 3 -21 6 -9 10 -7 14 8 5 20 -7 29 -17 13z"/>
<path d="M97 165 c-4 -8 -2 -17 3 -20 6 -4 10 3 10 14 0 25 -6 27 -13 6z"/>
<path d="M229 158 c-4 -15 -6 -38 -3 -38 2 0 8 9 14 20 7 14 7 20 0 20 -5 0
-10 -1 -11 -2z"/>
<path d="M157 119 c7 -7 15 -10 18 -7 3 3 -2 9 -12 12 -14 6 -15 5 -6 -5z"/>
<path d="M393 213 c-20 -7 -15 -29 10 -47 l22 -17 -22 6 c-29 8 -30 -10 -2
-25 15 -9 24 -8 35 1 19 16 18 25 -8 49 -18 17 -19 20 -5 20 9 0 17 5 17 10 0
10 -26 12 -47 3z"/>
<path d="M462 173 c3 -40 6 -47 26 -48 12 -1 27 4 33 11 9 11 14 11 26 -2 20
-20 28 -11 13 16 -14 26 -7 50 15 50 10 0 15 -10 15 -34 0 -21 6 -36 15 -40
12 -4 15 3 15 34 0 29 4 40 15 40 10 0 15 -10 15 -34 0 -19 5 -38 10 -41 6 -3
10 3 10 14 0 14 6 21 20 21 11 0 20 -6 20 -14 0 -8 5 -18 10 -21 6 -4 10 13
10 44 0 51 -13 69 -23 31 -3 -11 -10 -20 -17 -20 -7 0 -14 9 -17 20 -5 17 -14
20 -60 20 -30 0 -63 -5 -74 -10 -13 -7 -19 -7 -19 0 0 5 -7 10 -15 10 -14 0
-14 -3 0 -30 14 -27 14 -30 -5 -40 -18 -10 -20 -8 -20 30 0 22 -5 40 -11 40
-6 0 -9 -19 -7 -47z"/>
<path d="M780 176 c0 -52 6 -58 46 -47 22 5 30 14 32 35 4 36 -13 56 -49 56
-28 0 -29 -2 -29 -44z m58 -4 c2 -15 -2 -22 -12 -22 -11 0 -16 9 -16 26 0 31
23 28 28 -4z"/>
<path d="M870 176 c0 -30 5 -46 15 -50 12 -4 15 4 15 44 0 38 -4 50 -15 50
-11 0 -15 -12 -15 -44z"/>
<path d="M918 175 c-2 -29 1 -46 9 -50 9 -3 13 5 13 23 1 26 1 26 15 8 12 -16
17 -17 30 -6 12 10 15 10 15 -3 0 -9 5 -19 10 -22 6 -4 10 13 10 44 0 39 -4
51 -15 51 -8 0 -15 -6 -15 -14 0 -22 -25 -26 -38 -5 -19 30 -30 22 -34 -26z"/>
<path d="M1042 173 c3 -44 5 -48 31 -51 34 -4 38 24 5 31 l-23 4 23 2 c12 0
22 5 22 10 0 5 -10 12 -22 16 l-23 8 23 4 c33 6 27 23 -9 23 -30 0 -30 -1 -27
-47z"/>
<path d="M1112 173 c3 -50 19 -61 28 -21 6 22 6 22 20 2 30 -42 40 -38 40 15
0 28 -4 51 -10 51 -5 0 -10 -12 -10 -27 l-1 -28 -20 28 c-33 43 -51 36 -47
-20z"/>
<path d="M1220 201 c0 -10 10 -26 23 -35 22 -16 22 -17 0 -11 -12 3 -24 1 -27
-4 -9 -13 29 -32 48 -25 24 9 20 49 -6 62 l-23 11 23 0 c31 1 18 21 -14 21
-17 0 -24 -6 -24 -19z"/>
<path d="M1292 173 c2 -27 8 -48 13 -48 6 0 11 21 13 48 3 38 0 47 -13 47 -13
0 -16 -9 -13 -47z"/>
<path d="M1348 206 c-26 -19 -22 -53 7 -72 23 -15 27 -15 50 0 42 27 28 86
-19 86 -12 0 -29 -7 -38 -14z m53 -13 c0 -5 2 -15 4 -23 1 -10 -5 -17 -18 -18
-26 -1 -40 18 -25 35 11 14 38 18 39 6z"/>
<path d="M1442 173 c3 -50 19 -61 28 -21 6 22 6 22 20 2 30 -42 40 -38 40 15
0 28 -4 51 -10 51 -5 0 -10 -12 -10 -27 l-1 -28 -20 28 c-33 43 -51 36 -47
-20z"/>
<path d="M1580 176 c0 -51 8 -56 69 -43 31 7 50 6 63 -2 11 -7 18 -7 18 -1 0
16 -32 90 -39 90 -15 -1 -30 -17 -40 -43 -15 -40 -41 -35 -41 8 0 24 -5 35
-15 35 -11 0 -15 -12 -15 -44z"/>
<path d="M1742 173 c3 -41 6 -48 23 -46 34 5 69 5 89 1 10 -1 23 5 30 15 9 15
7 22 -13 38 -18 14 -19 19 -7 19 9 0 16 5 16 10 0 16 -36 12 -51 -6 -11 -14
-9 -19 11 -35 l25 -19 -25 4 c-19 2 -26 10 -30 32 -4 24 -10 30 -38 32 l-33 3
3 -48z m43 17 c3 -5 2 -10 -4 -10 -5 0 -13 5 -16 10 -3 6 -2 10 4 10 5 0 13
-4 16 -10z m2 -36 c-3 -3 -12 -4 -19 -1 -8 3 -5 6 6 6 11 1 17 -2 13 -5z"/>
</g>
</svg>
